<?xml version="1.0" standalone="no"?>
<!DOCTYPE svg PUBLIC "-//W3C//DTD SVG 20010904//EN"
 "http://www.w3.org/TR/2001/REC-SVG-20010904/DTD/svg10.dtd">
<svg version="1.0" xmlns="http://www.w3.org/2000/svg"
 width="512.000000pt" height="512.000000pt" viewBox="0 0 512.000000 512.000000"
 preserveAspectRatio="xMidYMid meet">

<g transform="translate(0.000000,512.000000) scale(0.100000,-0.100000)"
fill="#000000" stroke="none">
<path d="M280 5106 c-74 -16 -127 -46 -176 -98 -52 -54 -79 -107 -93 -183 -8
-41 -11 -542 -11 -1647 l0 -1588 2560 0 2560 0 0 1588 c0 1103 -3 1606 -11
1647 -14 78 -47 140 -101 191 -54 52 -107 79 -183 93 -89 17 -4470 14 -4545
-3z m4314 -356 c70 -27 129 -86 156 -156 20 -54 20 -71 20 -1179 l0 -1125
-2210 0 -2210 0 2 1178 3 1178 27 41 c15 23 44 49 70 62 l43 21 2022 0 c2012
0 2023 0 2077 -20z m-1854 -2810 l0 -90 -180 0 -180 0 0 90 0 90 180 0 180 0
0 -90z"/>
<path d="M1500 3970 l0 -260 440 0 440 0 0 260 0 260 -440 0 -440 0 0 -260z"/>
<path d="M2740 3970 l0 -260 440 0 440 0 0 260 0 260 -440 0 -440 0 0 -260z"/>
<path d="M1500 3090 l0 -260 440 0 440 0 0 260 0 260 -440 0 -440 0 0 -260z"/>
<path d="M2740 3090 l0 -260 440 0 440 0 0 260 0 260 -440 0 -440 0 0 -260z"/>
<path d="M800 175 l0 -175 1760 0 1760 0 0 175 0 175 -1760 0 -1760 0 0 -175z"/>
</g>
</svg>
